<svg width="137" height="106" viewBox="0 0 137 106" fill="none" xmlns="http://www.w3.org/2000/svg">
<mask id="path-1-outside-1_2_100" maskUnits="userSpaceOnUse" x="0" y="0" width="137" height="106" fill="black">
<rect fill="white" width="137" height="106"/>
<path d="M53.9209 40.1377C54.0413 74.8252 37.1191 95.7822 3.1543 103.009V84.0391C21.3411 79.1009 30.4346 67.418 30.4346 48.9902H2.07031V2.01758H53.9209V40.1377ZM134.316 40.1377C134.437 74.8252 117.515 95.7822 83.5498 103.009V84.0391C101.737 79.1009 110.83 67.418 110.83 48.9902H82.4658V2.01758H134.316V40.1377Z"/>
</mask>
<path d="M53.9209 40.1377H51.9209L51.9209 40.1446L53.9209 40.1377ZM3.1543 103.009H1.1543V105.479L3.57051 104.965L3.1543 103.009ZM3.1543 84.0391L2.63022 82.1089L1.1543 82.5097V84.0391H3.1543ZM30.4346 48.9902H32.4346V46.9902H30.4346V48.9902ZM2.07031 48.9902H0.0703125V50.9902H2.07031V48.9902ZM2.07031 2.01758V0.0175781H0.0703125V2.01758H2.07031ZM53.9209 2.01758H55.9209V0.0175781H53.9209V2.01758ZM134.316 40.1377H132.316L132.316 40.1446L134.316 40.1377ZM83.5498 103.009H81.5498V105.479L83.966 104.965L83.5498 103.009ZM83.5498 84.0391L83.0257 82.1089L81.5498 82.5097V84.0391H83.5498ZM110.83 48.9902H112.83V46.9902H110.83V48.9902ZM82.4658 48.9902H80.4658V50.9902H82.4658V48.9902ZM82.4658 2.01758V0.0175781H80.4658V2.01758H82.4658ZM134.316 2.01758H136.316V0.0175781H134.316V2.01758ZM53.9209 40.1377L51.9209 40.1446C51.98 57.163 47.8615 70.5858 39.7635 80.6146C31.6654 90.6437 19.4032 97.5068 2.73808 101.053L3.1543 103.009L3.57051 104.965C20.8702 101.284 34.0516 94.0556 42.8756 83.1276C51.6999 72.1993 55.9822 57.7999 55.9209 40.1308L53.9209 40.1377ZM3.1543 103.009H5.1543V84.0391H3.1543H1.1543V103.009H3.1543ZM3.1543 84.0391L3.67838 85.9692C13.0748 83.4178 20.3149 79.0686 25.1928 72.8017C30.074 66.5304 32.4346 58.5379 32.4346 48.9902H30.4346H28.4346C28.4346 57.8703 26.2484 64.9332 22.0362 70.3448C17.8206 75.7609 11.4207 79.7221 2.63022 82.1089L3.1543 84.0391ZM30.4346 48.9902V46.9902H2.07031V48.9902V50.9902H30.4346V48.9902ZM2.07031 48.9902H4.07031V2.01758H2.07031H0.0703125V48.9902H2.07031ZM2.07031 2.01758V4.01758H53.9209V2.01758V0.0175781H2.07031V2.01758ZM53.9209 2.01758H51.9209V40.1377H53.9209H55.9209V2.01758H53.9209ZM134.316 40.1377L132.316 40.1446C132.376 57.163 128.257 70.5858 120.159 80.6146C112.061 90.6437 99.7988 97.5068 83.1336 101.053L83.5498 103.009L83.966 104.965C101.266 101.284 114.447 94.0556 123.271 83.1276C132.095 72.1993 136.378 57.7999 136.316 40.1308L134.316 40.1377ZM83.5498 103.009H85.5498V84.0391H83.5498H81.5498V103.009H83.5498ZM83.5498 84.0391L84.0739 85.9692C93.4703 83.4178 100.71 79.0686 105.588 72.8017C110.47 66.5304 112.83 58.5379 112.83 48.9902H110.83H108.83C108.83 57.8703 106.644 64.9332 102.432 70.3448C98.2161 75.7609 91.8162 79.7221 83.0257 82.1089L83.5498 84.0391ZM110.83 48.9902V46.9902H82.4658V48.9902V50.9902H110.83V48.9902ZM82.4658 48.9902H84.4658V2.01758H82.4658H80.4658V48.9902H82.4658ZM82.4658 2.01758V4.01758H134.316V2.01758V0.0175781H82.4658V2.01758ZM134.316 2.01758H132.316V40.1377H134.316H136.316V2.01758H134.316Z" fill="black" fill-opacity="0.3" mask="url(#path-1-outside-1_2_100)"/>
</svg>
